<?xml version="1.0" encoding="UTF-8"?>
<!DOCTYPE svg PUBLIC "-//W3C//DTD SVG 1.1//EN" "http://www.w3.org/Graphics/SVG/1.1/DTD/svg11.dtd">
<svg xmlns="http://www.w3.org/2000/svg" version="1.1" width="1396px" height="1526px" style="shape-rendering:geometricPrecision; text-rendering:geometricPrecision; image-rendering:optimizeQuality; fill-rule:evenodd; clip-rule:evenodd" xmlns:xlink="http://www.w3.org/1999/xlink">
<g><path style="opacity:1" fill="#f9ce00" d="M 696.5,-0.5 C 697.167,-0.5 697.833,-0.5 698.5,-0.5C 709.048,7.52791 720.048,15.0279 731.5,22C 764.66,39.7459 797.66,57.7459 830.5,76C 907.468,122.098 941.968,190.265 934,280.5C 931.681,325.818 908.515,353.985 864.5,365C 835.582,371.855 806.249,374.855 776.5,374C 770.201,375.963 765.368,379.797 762,385.5C 753.582,403.915 748.582,423.248 747,443.5C 743.711,479.429 742.711,515.429 744,551.5C 759.069,525.416 777.569,501.916 799.5,481C 833.648,452.095 867.982,423.429 902.5,395C 919.488,380.685 934.321,364.518 947,346.5C 961.655,321.551 968.989,294.551 969,265.5C 970.854,234.364 966.854,204.031 957,174.5C 944.829,148.142 929.162,124.142 910,102.5C 909.312,101.668 909.479,101.002 910.5,100.5C 978.916,112.556 1040.92,139.056 1096.5,180C 1116.03,195.275 1132.2,213.442 1145,234.5C 1165.88,272.656 1165.54,310.656 1144,348.5C 1130.68,371.258 1113.51,390.758 1092.5,407C 1067.66,421.965 1040.66,429.965 1011.5,431C 986.78,432.381 962.114,434.381 937.5,437C 911.113,439.903 887.113,448.903 865.5,464C 817.003,501.491 779.169,547.657 752,602.5C 745.982,615.57 741.982,629.236 740,643.5C 738.932,659.655 738.099,675.822 737.5,692C 739.526,746.839 741.693,801.672 744,856.5C 747.135,862.7 750.801,863.034 755,857.5C 754.817,801.749 765.151,748.082 786,696.5C 828.535,604.28 900.702,554.78 1002.5,548C 1014.5,547.333 1026.5,547.333 1038.5,548C 1068.23,550.137 1097.9,552.97 1127.5,556.5C 1150.49,558.861 1173.49,559.027 1196.5,557C 1235.74,551.299 1268.91,534.132 1296,505.5C 1308.19,491.78 1315.52,475.78 1318,457.5C 1345.96,487.46 1360.13,523.127 1360.5,564.5C 1360.97,597.619 1349.97,626.119 1327.5,650C 1301.66,670.104 1272.66,676.437 1240.5,669C 1223.27,663.886 1207.6,655.886 1193.5,645C 1177.79,631.621 1161.79,618.621 1145.5,606C 1121.14,589.212 1094.14,579.545 1064.5,577C 1040.5,576.333 1016.5,576.333 992.5,577C 939.485,578.273 894.318,597.439 857,634.5C 832.95,657.579 816.283,685.246 807,717.5C 799.695,741.018 795.362,765.018 794,789.5C 795.235,795.473 797.901,796.473 802,792.5C 814.688,762.852 831.022,735.518 851,710.5C 877.878,681.965 911.045,666.465 950.5,664C 981.086,659.875 1010.42,664.209 1038.5,677C 1064.85,689.829 1089.51,705.162 1112.5,723C 1142.2,747.191 1171.54,771.858 1200.5,797C 1216.67,810.166 1233.67,822.166 1251.5,833C 1289.11,855.146 1326.44,854.813 1363.5,832C 1367.17,829 1370.83,826 1374.5,823C 1381.74,815.27 1388.74,807.437 1395.5,799.5C 1395.5,805.5 1395.5,811.5 1395.5,817.5C 1394.32,838.245 1391.49,858.912 1387,879.5C 1373.47,932.857 1339.3,956.357 1284.5,950C 1269.01,946.421 1255.34,939.421 1243.5,929C 1229.25,916.081 1216.41,901.914 1205,886.5C 1191.17,866.173 1177.83,845.507 1165,824.5C 1135.03,780.2 1097.53,743.7 1052.5,715C 970.916,670.449 901.749,684.615 845,757.5C 823.354,790.754 809.354,827.087 803,866.5C 797.929,896.298 795.929,926.298 797,956.5C 798.285,975.022 803.952,992.022 814,1007.5C 826.074,1020.9 840.908,1025.06 858.5,1020C 872.579,1017.25 880.412,1008.75 882,994.5C 881.96,961.988 881.127,929.488 879.5,897C 879.14,872.763 881.973,848.93 888,825.5C 896.264,798.443 914.431,787.276 942.5,792C 964.091,795.925 976.591,808.759 980,830.5C 981.206,851.989 971.373,865.822 950.5,872C 937.581,875.055 930.581,870.055 929.5,857C 930.074,852.652 930.74,848.318 931.5,844C 929.469,835.817 924.469,833.151 916.5,836C 912.888,839.56 910.888,843.893 910.5,849C 910.986,856.057 912.486,862.89 915,869.5C 922.667,883.167 930.333,896.833 938,910.5C 945.988,931.591 949.821,953.425 949.5,976C 948.706,985.132 948.206,994.299 948,1003.5C 946.082,1028.23 933.249,1043.73 909.5,1050C 901.908,1051.56 894.241,1052.56 886.5,1053C 865.497,1053.5 844.497,1053.33 823.5,1052.5C 807.652,1050.5 792.985,1053.67 779.5,1062C 766.635,1072.61 763.135,1085.77 769,1101.5C 781.783,1126.31 801.616,1134.81 828.5,1127C 835.864,1123.32 843.198,1119.65 850.5,1116C 861.12,1113.16 871.12,1114.49 880.5,1120C 888.287,1137.31 883.954,1150.98 867.5,1161C 853.679,1168.12 839.012,1172.46 823.5,1174C 812.525,1175.04 801.525,1175.71 790.5,1176C 781.663,1176.52 780.33,1179.85 786.5,1186C 800.983,1195.94 816.983,1201.94 834.5,1204C 838.646,1208.63 838.313,1212.96 833.5,1217C 794.214,1221.62 766.381,1206.12 750,1170.5C 740.965,1142.69 733.965,1114.36 729,1085.5C 725.595,1077.1 719.428,1071.93 710.5,1070C 696.901,1066.55 684.235,1068.55 672.5,1076C 670.3,1078.23 668.467,1080.73 667,1083.5C 661.892,1109.37 655.892,1135.04 649,1160.5C 635.815,1201.31 607.648,1220.48 564.5,1218C 557.569,1215.05 556.235,1210.55 560.5,1204.5C 574.781,1202.13 588.448,1197.63 601.5,1191C 604.939,1188.86 608.106,1186.36 611,1183.5C 612.187,1181.96 612.52,1180.29 612,1178.5C 609.734,1177.04 607.234,1176.21 604.5,1176C 584.855,1176.17 565.522,1173.84 546.5,1169C 532.182,1165.44 521.015,1157.61 513,1145.5C 505.611,1125.73 512.444,1115.39 533.5,1114.5C 538.296,1114.63 542.962,1115.46 547.5,1117C 555.667,1122.08 564.334,1126.08 573.5,1129C 600.905,1132.72 619.072,1121.55 628,1095.5C 630.489,1074.65 621.656,1061.15 601.5,1055C 598.529,1054.21 595.529,1053.54 592.5,1053C 571.497,1052.5 550.497,1052.67 529.5,1053.5C 511.44,1054.3 493.773,1052.13 476.5,1047C 457.278,1038.09 447.445,1022.92 447,1001.5C 446.146,982.807 446.479,964.14 448,945.5C 451.307,920.56 460.641,898.226 476,878.5C 483.547,866.228 485.547,853.228 482,839.5C 473.682,831.861 467.515,833.361 463.5,844C 470.128,867.702 461.794,876.369 438.5,870C 414.784,857.52 408.618,839.02 420,814.5C 430.092,798.035 444.926,790.368 464.5,791.5C 479.927,790.463 491.76,796.463 500,809.5C 507.155,822.967 511.489,837.301 513,852.5C 514.643,867.621 515.476,882.787 515.5,898C 514.766,925.01 513.766,952.01 512.5,979C 509.471,1008.3 522.637,1022.47 552,1021.5C 564.525,1021.57 574.525,1016.57 582,1006.5C 591.313,991.893 596.647,975.893 598,958.5C 600.579,907.465 593.579,857.798 577,809.5C 563.69,771.549 541.19,740.382 509.5,716C 465.439,686.394 418.772,681.727 369.5,702C 344.348,713.066 321.348,727.399 300.5,745C 275.091,767.733 252.591,792.899 233,820.5C 220.667,839.833 208.333,859.167 196,878.5C 184.376,895.207 171.209,910.707 156.5,925C 122.664,955.35 85.6641,959.683 45.5,938C 33.4665,929.969 24.2998,919.469 18,906.5C 9.94619,888.669 4.94619,870.002 3,850.5C 1.60913,837.699 0.442465,825.032 -0.5,812.5C -0.5,808.167 -0.5,803.833 -0.5,799.5C 7.85287,809.36 16.8529,818.86 26.5,828C 52.5821,847.628 81.5821,853.628 113.5,846C 134.614,838.779 153.947,828.446 171.5,815C 208.458,785.044 245.125,754.711 281.5,724C 303.978,705.916 328.311,690.583 354.5,678C 394.774,660.28 436.108,657.614 478.5,670C 511.379,679.551 537.545,698.384 557,726.5C 571.124,747.739 583.457,770.073 594,793.5C 597.795,796.418 600.128,795.418 601,790.5C 599.178,755.543 591.512,721.877 578,689.5C 555.668,646.168 522.501,614.001 478.5,593C 454.099,583.32 428.765,577.986 402.5,577C 378.5,576.333 354.5,576.333 330.5,577C 297.314,580.055 267.648,591.722 241.5,612C 222.639,628.866 202.639,644.199 181.5,658C 153.681,672.997 124.681,675.663 94.5,666C 63.3983,652.01 44.565,628.177 38,594.5C 29.9725,548.285 39.6391,506.285 67,468.5C 70.509,464.791 74.009,461.125 77.5,457.5C 81.0798,481.497 92.0798,501.33 110.5,517C 145.088,546.522 185.255,560.355 231,558.5C 245.519,557.982 260.019,557.149 274.5,556C 301.75,552.454 329.083,549.787 356.5,548C 418.391,543.304 475.057,557.971 526.5,592C 574.384,628.603 606.55,676.103 623,734.5C 634.153,774.721 639.82,815.721 640,857.5C 642.791,861.554 646.125,862.22 650,859.5C 651.245,853.61 651.912,847.61 652,841.5C 653.974,792.005 655.808,742.505 657.5,693C 657.202,675.808 656.369,658.641 655,641.5C 652.342,626.192 647.675,611.525 641,597.5C 619.026,555.757 590.86,518.59 556.5,486C 540.756,470.957 523.089,458.624 503.5,449C 490.903,443.934 477.903,440.267 464.5,438C 434.241,434.546 403.908,431.88 373.5,430C 330.863,426.935 296.363,408.769 270,375.5C 253.976,356.452 242.976,334.785 237,310.5C 231.664,276.844 239.331,246.511 260,219.5C 284.372,189.794 313.539,165.961 347.5,148C 390.978,124.341 436.978,108.841 485.5,101.5C 472.751,118.082 460.585,135.082 449,152.5C 435.817,175.724 428.483,200.724 427,227.5C 426.333,244.5 426.333,261.5 427,278.5C 429.468,314.615 443.134,345.615 468,371.5C 508.323,408.498 549.823,443.998 592.5,478C 615.649,499.851 635.316,524.351 651.5,551.5C 652.935,514.755 651.769,478.088 648,441.5C 646.4,421.097 641.067,401.764 632,383.5C 628.557,378.707 624.057,375.541 618.5,374C 588.76,374.815 559.426,371.815 530.5,365C 506.668,359.192 487.835,346.359 474,326.5C 463.883,306.584 459.383,285.418 460.5,263C 459.636,228.342 466.136,195.175 480,163.5C 492.993,137.166 511.16,114.999 534.5,97C 543.325,90.4207 552.325,84.0873 561.5,78C 595.846,58.4921 630.513,39.4921 665.5,21C 676.564,14.75 686.897,7.58333 696.5,-0.5 Z M 640.5,114.5 C 617.287,179.664 615.453,245.331 635,311.5C 599.416,277.401 586.749,236.068 597,187.5C 599.973,165.899 607.64,146.232 620,128.5C 625.664,121.982 632.498,117.316 640.5,114.5 Z M 754.5,114.5 C 766.558,119.049 775.724,127.049 782,138.5C 792.667,158.499 798.667,179.832 800,202.5C 804.338,231.149 799.004,257.816 784,282.5C 779.065,290.701 773.399,298.368 767,305.5C 765.242,307.765 763.075,309.432 760.5,310.5C 780.385,244.528 778.385,179.195 754.5,114.5 Z M 696.5,375.5 C 699.989,376.477 702.823,378.477 705,381.5C 711.285,392.293 714.951,403.96 716,416.5C 718.111,445.857 717.777,475.191 715,504.5C 710.144,545.064 706.477,585.731 704,626.5C 699.036,643.886 694.703,643.553 691,625.5C 688.581,584.059 684.914,542.725 680,501.5C 677.314,474.19 676.981,446.857 679,419.5C 679.556,406.716 682.889,394.716 689,383.5C 691.028,380.308 693.528,377.641 696.5,375.5 Z M 667.5,861.5 C 673.404,860.894 676.904,863.561 678,869.5C 678.256,903.505 678.756,937.505 679.5,971.5C 679.54,984.361 678.04,997.028 675,1009.5C 672.697,1017.47 667.53,1022.31 659.5,1024C 647.984,1026.5 638.151,1023.67 630,1015.5C 623.175,1001.64 622.841,987.639 629,973.5C 635,965.5 641,957.5 647,949.5C 654.425,936.469 658.758,922.469 660,907.5C 660.134,895.459 660.801,883.459 662,871.5C 663.07,867.689 664.903,864.356 667.5,861.5 Z M 721.5,861.5 C 727.756,861.242 731.589,864.242 733,870.5C 734.221,882.119 734.888,893.785 735,905.5C 735.995,922.482 740.995,938.149 750,952.5C 755,958.833 760,965.167 765,971.5C 771.17,984.027 772.17,997.027 768,1010.5C 764.721,1018.23 758.888,1022.73 750.5,1024C 731.369,1027.53 720.535,1019.69 718,1000.5C 716.372,957.195 716.038,913.862 717,870.5C 717.454,866.925 718.954,863.925 721.5,861.5 Z"/></g>
<g><path style="opacity:1" fill="#f9ce00" d="M 202.5,271.5 C 202.309,298.837 205.809,325.837 213,352.5C 230.386,408.887 267.886,443.387 325.5,456C 339.372,458.652 353.372,459.986 367.5,460C 358.123,473.711 346.456,485.044 332.5,494C 306.659,510.251 278.659,520.917 248.5,526C 220.899,528.884 194.232,525.217 168.5,515C 125.736,492.987 106.902,457.82 112,409.5C 118.903,364.187 139.07,326.021 172.5,295C 182.025,286.423 192.025,278.59 202.5,271.5 Z"/></g>
<g><path style="opacity:1" fill="#f9ce00" d="M 1191.5,271.5 C 1233.55,298.066 1262.38,335.066 1278,382.5C 1285.95,410.415 1285.28,438.081 1276,465.5C 1263.74,491.757 1243.91,509.59 1216.5,519C 1179.82,529.876 1143.49,528.876 1107.5,516C 1084.66,507.92 1063.99,496.253 1045.5,481C 1040.3,476.135 1035.47,470.968 1031,465.5C 1029.44,463.783 1028.61,461.783 1028.5,459.5C 1066.31,460.636 1100.64,450.47 1131.5,429C 1157.87,407.263 1175.37,379.763 1184,346.5C 1190.2,321.879 1192.7,296.879 1191.5,271.5 Z"/></g>
<g><path style="opacity:1" fill="#f9ce00" d="M 13.5,632.5 C 23.0116,647.966 34.3449,662.132 47.5,675C 81.8362,702.579 120.503,710.912 163.5,700C 173.792,697.736 183.792,694.569 193.5,690.5C 188.393,721.64 176.893,750.307 159,776.5C 134.013,808.744 101.513,820.91 61.5,813C 38.5163,805.351 22.6829,790.184 14,767.5C 3.01926,737.029 -0.314076,705.696 4,673.5C 5.58066,659.424 8.74733,645.757 13.5,632.5 Z"/></g>
<g><path style="opacity:1" fill="#f9ce00" d="M 1380.5,632.5 C 1381.5,632.47 1382.16,632.97 1382.5,634C 1391.43,662.512 1394.6,691.679 1392,721.5C 1390.5,745.543 1383.16,767.543 1370,787.5C 1347.61,813.727 1319.78,821.893 1286.5,812C 1259.32,803.154 1239.15,785.987 1226,760.5C 1214.09,738.272 1205.93,714.939 1201.5,690.5C 1233.87,704.303 1267.2,707.47 1301.5,700C 1337.19,688.48 1363.52,665.98 1380.5,632.5 Z"/></g>
<g><path style="opacity:1" fill="#f9ce00" d="M 164.5,953.5 C 165.496,953.414 166.329,953.748 167,954.5C 182.728,979.195 186.395,1005.53 178,1033.5C 166.948,1054.04 149.615,1064.04 126,1063.5C 110.653,1061.91 97.1529,1056.08 85.5,1046C 62.0822,1025.67 46.4155,1000.5 38.5,970.5C 38.8333,969.833 39.1667,969.167 39.5,968.5C 62.9686,981.093 87.9686,986.593 114.5,985C 128.454,983.686 140.954,978.853 152,970.5C 156.384,964.956 160.551,959.289 164.5,953.5 Z"/></g>
<g><path style="opacity:1" fill="#f9ce00" d="M 1228.5,953.5 C 1232.8,956.643 1236.3,960.643 1239,965.5C 1250.1,977.547 1263.94,984.047 1280.5,985C 1300.56,986.753 1319.89,983.753 1338.5,976C 1344.43,973.691 1350.27,971.191 1356,968.5C 1354.33,982.503 1349.66,995.503 1342,1007.5C 1331.99,1023.85 1319.49,1038.01 1304.5,1050C 1280.67,1067.26 1256.34,1067.93 1231.5,1052C 1218.28,1040.18 1211.94,1025.35 1212.5,1007.5C 1212.88,987.977 1218.21,969.977 1228.5,953.5 Z"/></g>
<g><path style="opacity:1" fill="#f9ce00" d="M 550.5,965.5 C 567.264,964.097 574.764,971.764 573,988.5C 569.091,1000.14 561.258,1003.98 549.5,1000C 539.843,995.061 536.343,987.228 539,976.5C 541.437,971.226 545.271,967.56 550.5,965.5 Z"/></g>
<g><path style="opacity:1" fill="#f9ce00" d="M 833.5,965.5 C 847.593,963.352 855.593,969.186 857.5,983C 853.76,999.037 844.093,1004.37 828.5,999C 819.655,989.272 819.322,979.272 827.5,969C 829.727,968.059 831.727,966.892 833.5,965.5 Z"/></g>
<g><path style="opacity:1" fill="#f9ce00" d="M 199.5,1062.5 C 208.885,1080.39 212.051,1099.39 209,1119.5C 200.247,1139.3 185.08,1147.13 163.5,1143C 153.634,1140.9 144.634,1136.9 136.5,1131C 118.485,1116.71 104.985,1099.21 96,1078.5C 121.423,1092.41 147.923,1094.91 175.5,1086C 186.683,1081.32 194.683,1073.48 199.5,1062.5 Z"/></g>
<g><path style="opacity:1" fill="#f9ce00" d="M 1194.5,1062.5 C 1203.08,1078.31 1216.41,1087.48 1234.5,1090C 1257.33,1093.5 1278.83,1089.67 1299,1078.5C 1290.57,1098.12 1278.07,1114.95 1261.5,1129C 1253.89,1134.64 1245.56,1138.97 1236.5,1142C 1221.97,1145.83 1208.64,1143.5 1196.5,1135C 1188.1,1127.2 1184.1,1117.53 1184.5,1106C 1185.71,1091.01 1189.04,1076.51 1194.5,1062.5 Z"/></g>
<g><path style="opacity:1" fill="#f9ce00" d="M 555.5,1069.5 C 569.769,1069.42 583.769,1071.25 597.5,1075C 605.784,1077.28 610.451,1082.61 611.5,1091C 610.409,1097.58 606.409,1100.91 599.5,1101C 581.312,1101.48 563.146,1100.98 545,1099.5C 505.651,1102.01 473.318,1118.34 448,1148.5C 433.172,1166.15 422.506,1186.15 416,1208.5C 411.309,1224.61 417.142,1234.78 433.5,1239C 446.654,1241.94 459.987,1243.11 473.5,1242.5C 505.858,1241.57 538.192,1240.07 570.5,1238C 601.86,1236.73 628.026,1224.57 649,1201.5C 656.151,1193.19 662.818,1184.53 669,1175.5C 671.601,1169.76 673.267,1163.76 674,1157.5C 675.742,1137.08 678.075,1116.74 681,1096.5C 685.403,1091.64 690.903,1089.64 697.5,1090.5C 705.149,1089.43 710.983,1092.1 715,1098.5C 717.367,1121.54 720.034,1144.54 723,1167.5C 724.393,1171.29 726.059,1174.95 728,1178.5C 737.741,1192.24 748.907,1204.74 761.5,1216C 773.972,1225.57 787.972,1231.9 803.5,1235C 815.072,1237.14 826.739,1238.47 838.5,1239C 874.46,1241.63 910.46,1242.63 946.5,1242C 959.459,1241.58 970.293,1236.75 979,1227.5C 980.233,1225.13 981.066,1222.63 981.5,1220C 973.647,1182.94 955.314,1152.28 926.5,1128C 904.261,1110.03 878.761,1100.53 850,1099.5C 831.854,1100.98 813.688,1101.48 795.5,1101C 785.139,1100.32 781.639,1095.16 785,1085.5C 790.739,1077.54 798.572,1073.04 808.5,1072C 847.008,1067.72 884.674,1071.72 921.5,1084C 1012.77,1110.31 1084.44,1162.97 1136.5,1242C 1117.45,1253.01 1097.12,1261.01 1075.5,1266C 1037.55,1274.34 999.216,1276.67 960.5,1273C 948.131,1272 935.798,1270.66 923.5,1269C 875.429,1261.43 827.429,1253.43 779.5,1245C 752.326,1240.59 724.992,1237.76 697.5,1236.5C 677.079,1237.34 656.746,1239.17 636.5,1242C 586.429,1249.9 536.429,1258.23 486.5,1267C 442.37,1274.53 398.036,1276.2 353.5,1272C 319.904,1268.19 288.237,1258.35 258.5,1242.5C 329.618,1137.75 428.618,1080.08 555.5,1069.5 Z M 414.5,1125.5 C 401.869,1138.63 389.035,1151.63 376,1164.5C 359.908,1183.93 343.075,1202.76 325.5,1221C 316.508,1227.26 310.175,1225.26 306.5,1215C 310.787,1205.71 316.287,1197.21 323,1189.5C 341.237,1170.49 361.404,1153.99 383.5,1140C 393.082,1133.54 403.415,1128.71 414.5,1125.5 Z M 980.5,1125.5 C 990.422,1128.29 999.755,1132.46 1008.5,1138C 1026.55,1150.03 1043.88,1163.03 1060.5,1177C 1072.16,1187.99 1081.5,1200.66 1088.5,1215C 1084.14,1226.35 1077.48,1228.01 1068.5,1220C 1053.26,1204.09 1038.76,1187.59 1025,1170.5C 1009.96,1155.63 995.131,1140.63 980.5,1125.5 Z M 962.5,1139.5 C 962.56,1138.96 962.893,1138.62 963.5,1138.5C 980.959,1147.84 996.125,1160.17 1009,1175.5C 1019.5,1187.66 1028.83,1200.66 1037,1214.5C 1038.92,1217.84 1040.42,1221.34 1041.5,1225C 1041.51,1226.81 1040.84,1228.31 1039.5,1229.5C 1030.85,1231.76 1024.01,1229.1 1019,1221.5C 1006.33,1201.5 993.667,1181.5 981,1161.5C 975.528,1153.54 969.362,1146.21 962.5,1139.5 Z M 431.5,1139.5 C 426.009,1146.47 420.509,1153.47 415,1160.5C 401.333,1181.83 387.667,1203.17 374,1224.5C 369.208,1229.65 363.375,1231.48 356.5,1230C 353.053,1227.36 352.553,1224.2 355,1220.5C 371.428,1190.07 393.595,1164.57 421.5,1144C 424.736,1142.21 428.07,1140.71 431.5,1139.5 Z"/></g>
<g><path style="opacity:1" fill="#f9ce00" d="M 228.5,1149.5 C 229.376,1149.37 230.043,1149.7 230.5,1150.5C 236.778,1163.07 237.945,1176.07 234,1189.5C 229.311,1199.01 221.644,1203.35 211,1202.5C 195.154,1202.41 182.154,1196.41 172,1184.5C 170.226,1181.29 168.726,1177.95 167.5,1174.5C 180.406,1175.49 193.073,1173.99 205.5,1170C 215.548,1165.78 223.214,1158.95 228.5,1149.5 Z"/></g>
<g><path style="opacity:1" fill="#f9ce00" d="M 1165.5,1149.5 C 1175.32,1164.42 1189.32,1172.59 1207.5,1174C 1214.23,1174.2 1220.9,1174.37 1227.5,1174.5C 1223.23,1187.94 1214.23,1196.44 1200.5,1200C 1168.7,1208.2 1155.2,1196.04 1160,1163.5C 1161.35,1158.61 1163.18,1153.94 1165.5,1149.5 Z"/></g>
<g><path style="opacity:1" fill="#f9ce00" d="M 711.5,1525.5 C 702.167,1525.5 692.833,1525.5 683.5,1525.5C 626.225,1519.08 588.392,1488.41 570,1433.5C 560.168,1402.31 564.834,1373.64 584,1347.5C 595.482,1333.86 606.482,1319.86 617,1305.5C 620.031,1300.57 619.864,1295.9 616.5,1291.5C 614.232,1290.46 611.899,1290.29 609.5,1291C 547.348,1314.61 483.681,1332.94 418.5,1346C 374.48,1354.75 330.147,1357.08 285.5,1353C 253.585,1350.04 224.918,1339.04 199.5,1320C 196.833,1317.33 194.167,1314.67 191.5,1312C 201.845,1299.74 204.345,1285.9 199,1270.5C 195.576,1260.24 188.743,1253.57 178.5,1250.5C 173.172,1251.32 169.005,1253.99 166,1258.5C 163.967,1264.7 162.301,1271.03 161,1277.5C 159.895,1280.94 157.728,1283.44 154.5,1285C 140.82,1285.56 131.32,1279.39 126,1266.5C 124.676,1260.66 125.676,1255.32 129,1250.5C 139.76,1237.95 153.427,1231.95 170,1232.5C 185.1,1232.9 199.6,1236.07 213.5,1242C 237.984,1252.24 261.984,1263.57 285.5,1276C 309.275,1286.05 334.108,1290.55 360,1289.5C 379.542,1289.03 399.042,1287.87 418.5,1286C 479.906,1278.56 541.239,1270.56 602.5,1262C 631.749,1258.51 661.083,1256.01 690.5,1254.5C 715.468,1254.89 740.468,1256.39 765.5,1259C 836.156,1268.09 906.822,1277.09 977.5,1286C 1001.77,1288.59 1026.11,1289.59 1050.5,1289C 1066.56,1288.6 1082.23,1285.93 1097.5,1281C 1122.41,1269.88 1147.08,1258.21 1171.5,1246C 1183.5,1241 1195.83,1237 1208.5,1234C 1231.64,1228.16 1251.14,1234 1267,1251.5C 1271.28,1257.2 1271.61,1263.2 1268,1269.5C 1264.03,1276.81 1258.19,1281.97 1250.5,1285C 1242.62,1287.47 1237.12,1284.97 1234,1277.5C 1232.91,1272.19 1231.91,1266.85 1231,1261.5C 1220.43,1246.86 1210.1,1247.2 1200,1262.5C 1190.36,1280.03 1191.52,1296.7 1203.5,1312.5C 1182.4,1332.38 1157.4,1344.88 1128.5,1350C 1098.35,1355.44 1068.02,1356.77 1037.5,1354C 975.388,1347.78 914.721,1334.78 855.5,1315C 832.017,1307.39 808.684,1299.39 785.5,1291C 779.573,1289.6 776.573,1291.93 776.5,1298C 776.656,1301.82 777.822,1305.32 780,1308.5C 791.092,1323.02 802.426,1337.35 814,1351.5C 827.76,1370.7 832.76,1392.03 829,1415.5C 820.951,1463.47 794.784,1497.3 750.5,1517C 737.737,1521.61 724.737,1524.45 711.5,1525.5 Z M 743.5,1320.5 C 750.39,1339.19 748.223,1356.86 737,1373.5C 729.491,1382.17 719.991,1387 708.5,1388C 667.877,1393.03 647.711,1375.2 648,1334.5C 648.528,1330.06 649.528,1325.72 651,1321.5C 662.751,1352.46 684.585,1363.29 716.5,1354C 730.837,1347.16 739.837,1335.99 743.5,1320.5 Z M 615.5,1351.5 C 621.027,1412.5 654.36,1439 715.5,1431C 749.821,1425.68 769.988,1405.85 776,1371.5C 777.28,1364.88 778.28,1358.21 779,1351.5C 796.601,1391.01 789.768,1425.51 758.5,1455C 734.808,1471.81 708.475,1477.81 679.5,1473C 634.829,1464.33 610.495,1437.33 606.5,1392C 607.217,1377.97 610.217,1364.47 615.5,1351.5 Z"/></g>
<g><path style="opacity:1" fill="#f9ce00" d="M 559.5,1329.5 C 560.376,1329.37 561.043,1329.7 561.5,1330.5C 552.948,1345.57 541.948,1358.73 528.5,1370C 522.649,1374.43 516.983,1379.09 511.5,1384C 490.833,1398.33 470.167,1412.67 449.5,1427C 415.906,1445.66 380.906,1448.99 344.5,1437C 321.788,1427.29 308.454,1410.29 304.5,1386C 328.804,1384.28 353.137,1382.94 377.5,1382C 388.954,1381.15 400.288,1379.48 411.5,1377C 443.382,1367.26 475.382,1357.93 507.5,1349C 525.281,1343.36 542.614,1336.86 559.5,1329.5 Z"/></g>
<g><path style="opacity:1" fill="#f9ce00" d="M 833.5,1329.5 C 850.285,1336.15 867.285,1342.32 884.5,1348C 919.167,1358 953.833,1368 988.5,1378C 998.425,1379.89 1008.42,1381.23 1018.5,1382C 1042.51,1383.13 1066.51,1384.3 1090.5,1385.5C 1085.95,1412.08 1070.95,1429.92 1045.5,1439C 1011.39,1448.43 978.721,1444.77 947.5,1428C 925.659,1413.25 903.992,1398.25 882.5,1383C 867.037,1371.2 853.204,1357.7 841,1342.5C 837.971,1338.44 835.471,1334.11 833.5,1329.5 Z"/></g>
<g><path style="opacity:1" fill="#f9ce00" d="M 545.5,1384.5 C 544.292,1423.24 551.292,1460.57 566.5,1496.5C 561.929,1499.41 556.929,1501.25 551.5,1502C 515.817,1506.32 483.484,1497.99 454.5,1477C 447.5,1471.01 442.5,1463.67 439.5,1455C 477.709,1435.59 513.043,1412.09 545.5,1384.5 Z"/></g>
<g><path style="opacity:1" fill="#f9ce00" d="M 848.5,1384.5 C 868.765,1400.59 889.765,1415.75 911.5,1430C 925.513,1438.34 939.846,1446.17 954.5,1453.5C 955.614,1454.72 955.781,1456.06 955,1457.5C 949.271,1469.23 940.771,1478.4 929.5,1485C 902.667,1500.03 874,1505.7 843.5,1502C 838.236,1501.1 833.236,1499.43 828.5,1497C 844.237,1461.15 850.903,1423.65 848.5,1384.5 Z"/></g>
</svg>
